<svg xmlns="http://www.w3.org/2000/svg" viewBox="0 0 103.18 98.89"><defs><style>.cls-1{fill:#dd788a;}.cls-2{fill:#c27184;}.cls-3{fill:#a86f8d;}.cls-4{fill:#996d8e;}.cls-5{fill:#816c98;}.cls-6{fill:#686ba2;}.cls-7{fill:#5c73ab;}.cls-8{fill:#5788bb;}.cls-9{fill:#559fce;}.cls-10{fill:#4fb6df;}.cls-11{fill:#5ecbee;}.cls-12{fill:#72a964;}.cls-13{fill:#a3b061;}.cls-14{fill:#ebb159;}.cls-15{fill:#eb9641;}.cls-16{fill:#f58357;}.cls-17{fill:#f37b7d;}.cls-18{fill:#58c3bd;}.cls-19{fill:#52b79d;}.cls-20{fill:#4cb289;}.cls-21{fill:#57ad78;}</style></defs><title>Zasób 1</title><g id="Warstwa_2" data-name="Warstwa 2"><g id="Warstwa_1-2" data-name="Warstwa 1"><path class="cls-1" d="M19.81,45.69H0A52.83,52.83,0,0,0,2.62,62.12L21.5,56A31.7,31.7,0,0,1,19.81,45.69Z"/><path class="cls-2" d="M21.44,56,2.56,62.12a51.3,51.3,0,0,0,7,14.07L25.81,64.81A36.22,36.22,0,0,1,21.44,56Z"/><path class="cls-3" d="M25.88,64.81,9.62,76.19A50.56,50.56,0,0,0,20.44,87.56L32.63,71.94A34.31,34.31,0,0,1,25.88,64.81Z"/><path class="cls-4" d="M32.62,71.94,20.44,87.56a49.31,49.31,0,0,0,13.68,7.75l7.13-18.5A35.43,35.43,0,0,1,32.62,71.94Z"/><path class="cls-5" d="M41.19,76.81l-7.13,18.5a49.62,49.62,0,0,0,15.32,3.38l1.37-19.82A32.67,32.67,0,0,1,41.19,76.81Z"/><path class="cls-6" d="M50.81,78.94,49.44,98.75A51.14,51.14,0,0,0,65.13,97.5l-4.5-19.31a33,33,0,0,1-7.5.87C52.38,79.06,51.62,79,50.81,78.94Z"/><path class="cls-7" d="M60.62,78.19l3.76,16.25A47.69,47.69,0,0,0,78.12,89L69.81,74.56A32.54,32.54,0,0,1,60.62,78.19Z"/><path class="cls-8" d="M69.81,74.56,78.13,89a49.85,49.85,0,0,0,12.18-9.88L77.94,67.94A33.21,33.21,0,0,1,69.81,74.56Z"/><path class="cls-9" d="M77.94,68,90.31,79.19A48.32,48.32,0,0,0,98.5,66.88L83.38,59.81A35,35,0,0,1,77.94,68Z"/><path class="cls-10" d="M83.38,59.75,98.5,66.81a48.75,48.75,0,0,0,4.19-14.19l-16.5-2.31A33.88,33.88,0,0,1,83.38,59.75Z"/><path class="cls-11" d="M102.56,37.88l-3.31.5h0L86.06,40.44a35.63,35.63,0,0,1,.44,5.19,27.18,27.18,0,0,1-.38,4.62l16.5,2.31A45.77,45.77,0,0,0,102.56,37.88Z"/><path class="cls-12" d="M53.19,12.31a31.94,31.94,0,0,1,6.94.75l2.06-9.75A40.13,40.13,0,0,0,49.38,2.5l.87,10A23.42,23.42,0,0,1,53.19,12.31Z"/><path class="cls-13" d="M50.25,12.5l-.87-10a40.73,40.73,0,0,0-12.44,3l3.75,9.25A32.34,32.34,0,0,1,50.25,12.5Z"/><path class="cls-14" d="M32.19,19.75a33,33,0,0,1,8.5-5L36.94,5.5A41,41,0,0,0,25.88,12L28,14.56h0Z"/><path class="cls-15" d="M32.19,19.75,28,14.56a38.35,38.35,0,0,0-8,8.75l5.5,3.75A35.46,35.46,0,0,1,32.19,19.75Z"/><path class="cls-16" d="M21.25,35.94a34.31,34.31,0,0,1,4.25-8.88L20,23.31A36.15,36.15,0,0,0,14.94,34l3.18,1h0Z"/><path class="cls-17" d="M21.25,35.94l-3.19-1a34.85,34.85,0,0,0-1.62,10.75h3.31A35.48,35.48,0,0,1,21.25,35.94Z"/><path class="cls-18" d="M86.06,40.5l13.19-2.06a45.06,45.06,0,0,0-4.12-13.19l-12,5.81A32.16,32.16,0,0,1,86.06,40.5Z"/><path class="cls-19" d="M83.12,31.06l12-5.87a44.21,44.21,0,0,0-7.81-11.38L77.5,22.94A34.93,34.93,0,0,1,83.12,31.06Z"/><path class="cls-20" d="M77.5,22.94l9.75-9.13A43.64,43.64,0,0,0,76.44,5.25L69.75,16.81A33.76,33.76,0,0,1,77.5,22.94Z"/><path class="cls-21" d="M60.06,13.06a32.89,32.89,0,0,1,9.75,3.75L76.5,5.25A48,48,0,0,0,62.88,0l-.69,3.25h0Z"/></g></g></svg>